<?xml version="1.0" encoding="utf-8"?>
<!-- Generator: Adobe Illustrator 26.0.3, SVG Export Plug-In . SVG Version: 6.00 Build 0)  -->
<svg version="1.1" xmlns="http://www.w3.org/2000/svg" xmlns:xlink="http://www.w3.org/1999/xlink" x="0px" y="0px"
	 viewBox="0 0 100 100" style="enable-background:new 0 0 100 100;" xml:space="preserve">
<style type="text/css">
	.st0{fill:#0C0CBA;}
	.st1{fill:#EDED0C;}
</style>
<g id="Шар_2">
	<rect class="st0" width="100" height="100"/>
</g>
<g id="Шар_1">
	<path class="st1" d="M70.7,1.7c1.2,0.7,1.8,2.2,1.4,3.5L61.2,40.6h20.1c1.7,0,3,1.4,3,3c0,0.8-0.3,1.5-0.8,2.1L35.2,97
		c-1.1,1.2-3.1,1.3-4.3,0.1c-0.8-0.8-1.2-2-0.8-3.1L41,58.7H20.9c-1.7,0-3-1.4-3-3c0-0.8,0.3-1.5,0.8-2.1L67,2.3
		C68,1.2,69.5,1,70.7,1.7L70.7,1.7z"/>
</g>
</svg>
