<?xml version="1.0" encoding="utf-8"?>
<!-- Generator: Adobe Illustrator 26.0.3, SVG Export Plug-In . SVG Version: 6.00 Build 0)  -->
<svg version="1.1" xmlns="http://www.w3.org/2000/svg" xmlns:xlink="http://www.w3.org/1999/xlink" x="0px" y="0px"
	 viewBox="0 0 2500 2500" style="enable-background:new 0 0 2500 2500;" xml:space="preserve">
<style type="text/css">
	.st0{fill:#0C0CBA;}
	.st1{display:none;fill-rule:evenodd;clip-rule:evenodd;fill:#FFFFFF;}
	.st2{display:none;fill-rule:evenodd;clip-rule:evenodd;fill:#EDED0C;}
	.st3{display:none;fill-rule:evenodd;clip-rule:evenodd;}
	.st4{display:none;fill:none;stroke:#FFFFFF;stroke-width:22.7879;stroke-miterlimit:33.89;}
	.st5{fill:#EDED0C;}
	.st6{fill:#FFFFFF;}
</style>
<g id="Шар_3">
	<rect class="st0" width="2500" height="2500"/>
</g>
<g id="Шар_1">
	<path class="st1" d="M0,0h2500v2500H0V0z"/>
	<path class="st2" d="M611.7,1256.8c106.9-36.8,219.5,3.5,274.2,100.2c14.2,25.1,22.8,48.6,29.8,77.7l636.1,4.3
		c12.4-44.9,40.2-79.5,76-99.7c75.2-42.6,170.6-16.1,211.1,55.5c42.6,75.2,14.1,167-61.2,209.6c-71.6,40.5-165,17.7-207.5-57.6
		l-18.2-32.2l-638.2-7.8c-11.5,63.3-49,122.3-109.9,156.8c-68.1,38.5-149.2,37.1-213.4,7.2l-309.7,539.3
		c8.1,14.3,19.8,26.6,25.9,37.4c42.6,75.2,16.1,170.6-55.5,211.1c-75.2,42.6-167,14.1-209.6-61.2c-40.5-71.7-17.7-165,57.6-207.5
		c32.2-18.2,72.6-22.2,109.8-14.8l324-547.4c-13.7-15.9-27.4-31.8-37.6-49.7c-54.7-96.7-31.2-214.1,57.4-283.1L236.6,736
		c-63.9,12.5-131.7-15.4-166.1-76.3C30,588,56.4,492.7,128,452.1c75.2-42.6,170.6-16.1,211.1,55.5c38.5,68.1,16.7,146.6-36.1,195.4
		L611.7,1256.8z M100.6,2217.5c-3-22-68.2,71.7-53.1,115.2c2.5,12.8,54.7-12,52.7-15.6C90.6,2275.2,101,2226.7,100.6,2217.5
		L100.6,2217.5z M52,2349c19.9-6.6,38.3-7.5,54.2-21.2c4.5,16.4,9,32.7,21.2,54.2c-21.5,12.2-37.9,16.7-59.8,19.7
		C50.3,2387.8,45.3,2362.3,52,2349L52,2349z M131,474.1c-1.6,5.6-12,54.1,1.1,93.9c0,0-50.2,28.4-56.2,17.6
		C60.8,542.2,126,448.5,131,474.1L131,474.1z M78.4,598.5c23.5-8.6,38.3-7.5,57.8-23.2c4.5,16.4,11.1,36.3,23.2,57.8
		c-21.5,12.2-37.9,16.7-59.8,19.7C82.3,638.8,75.3,609.7,78.4,598.5z M1645.1,1353.2c-20.9-11.8,94.6-25.1,124,10.2
		c6.1,10.7-38.5,40.7-44.1,39.1C1697.6,1370.7,1652.8,1358.3,1645.1,1353.2z M1780.8,1375.7c11.2,3.1,30.5,20.6,39.1,44.1
		c-19.5,15.7-31.8,27.4-53.2,39.6c-8.6-23.5-20.3-35.8-35.5-46.1C1754.7,1404.7,1765,1389.4,1780.8,1375.7L1780.8,1375.7z
		 M653.4,1280.5c-8.6-23.5,58.4-47.2,130.7-3c75.9,42.2,114.4,110.3,97.1,96.4c-65.1-48.3-121.8-39.8-177.9-55.4
		C680.9,1312.3,655.9,1293.2,653.4,1280.5L653.4,1280.5z"/>
	<path class="st3" d="M494.1,471.5h191.1L876.4,1011H706.8l-29.3-93.3H501.8l-30.1,93.3H302.2L494.1,471.5z M531.9,799h115.6
		l-57.8-190.4L531.9,799L531.9,799z M958.1,600.9H839.3V471.5h396.2v129.5h-118.7v410H958.1V600.9z"/>
	<path class="st3" d="M1502.9,1026.4c-94.5,0-166.5-28.5-215.8-85.6c-49.3-57-74-123.6-74-199.6c0-75.5,24.3-141.9,72.8-199.2
		c48.6-57.3,120.9-85.9,217-85.9h7.7c96.1,0,168.4,28.7,217,85.9c48.5,57.3,72.8,123.7,72.8,199.2c0,76.1-24.3,142.3-72.8,198.9
		c-48.6,56.5-120.9,85-217,85.5L1502.9,1026.4L1502.9,1026.4z M1506,896.9c5.1,0,10.5-0.4,16.2-1.2c5.8-0.8,11.5-2.2,17-4.2
		c24.7-6.7,47.1-21.7,67.4-45.1c20.3-23.4,30.5-58.4,30.5-105.2c0-46.8-10.3-81.8-30.8-105.2c-20.5-23.4-42.9-38.4-67.1-45.1
		c-5.5-1.5-11-2.8-16.6-3.9c-5.2-1-10.5-1.5-15.8-1.5c-5.7,0-11.6,0.5-17.7,1.5c-6,1-12,2.5-17.8,4.6c-23.6,7.2-45.3,22.5-65.1,45.9
		c-19.8,23.4-29.7,57.9-29.7,103.7c0,45.7,9.9,80.3,29.7,103.7c19.8,23.4,41.5,38.6,65.1,45.8c5.7,2.1,11.5,3.6,17.4,4.6
		C1494.6,896.4,1500.4,896.9,1506,896.9L1506,896.9z M1885.2,471.5H2044l90.9,316l91-316h158.8l78.6,539.5h-152.6l-37.8-294.4
		l-85.6,294.4h-104.8l-85.5-294.4l-37.8,294.4h-152.6L1885.2,471.5L1885.2,471.5z"/>
	<path class="st4" d="M494.1,471.5h191.1L876.4,1011H706.8l-29.3-93.3H501.8l-30.1,93.3H302.2L494.1,471.5z M531.9,799h115.6
		l-57.8-190.4L531.9,799L531.9,799z M958.1,600.9H839.4V471.5h396.2v129.5h-118.7v410H958.1V600.9z M1502.9,1026.4
		c-94.5,0-166.5-28.5-215.8-85.6c-49.3-57-74-123.6-74-199.6c0-75.5,24.3-141.9,72.8-199.2c48.6-57.3,120.9-85.9,217-85.9h7.7
		c96.1,0,168.4,28.7,217,85.9c48.5,57.3,72.8,123.7,72.8,199.2c0,76.1-24.3,142.3-72.8,198.9c-48.6,56.5-120.9,85-217,85.5
		L1502.9,1026.4L1502.9,1026.4z M1506,896.9c5.1,0,10.5-0.4,16.2-1.2c5.8-0.8,11.5-2.2,17-4.2c24.7-6.7,47.1-21.7,67.4-45.1
		c20.3-23.4,30.5-58.4,30.5-105.2c0-46.8-10.3-81.8-30.8-105.2c-20.5-23.4-42.9-38.4-67.1-45.1c-5.5-1.5-11-2.8-16.6-3.9
		c-5.2-1-10.5-1.5-15.8-1.5c-5.7,0-11.6,0.5-17.7,1.5c-6,1-12,2.5-17.8,4.6c-23.6,7.2-45.3,22.5-65.1,45.9
		c-19.8,23.4-29.7,57.9-29.7,103.7c0,45.7,9.9,80.3,29.7,103.7c19.8,23.4,41.5,38.6,65.1,45.8c5.7,2.1,11.5,3.6,17.4,4.6
		C1494.6,896.4,1500.4,896.9,1506,896.9L1506,896.9z M1885.2,471.5H2044l90.9,316l91-316h158.8l78.6,539.5h-152.6l-37.8-294.4
		l-85.6,294.4h-104.8l-85.5-294.4l-37.8,294.4h-152.6L1885.2,471.5z"/>
	<g>
		<g>
			<path class="st5" d="M1171.3,1190.5c-96.3,0-179.5,55.9-219.5,136.9l-522.2-223.8c4.2-15.7,6.7-32.2,6.7-49.2
				c0-105.1-85.5-190.6-190.6-190.6S55.1,949.3,55.1,1054.4S140.6,1245,245.7,1245c68.7,0,128.8-36.7,162.4-91.4l525.1,225.1
				c-4.4,18.3-6.9,37.3-6.9,56.9c0,64.8,25.5,123.6,66.7,167.5l-436.6,374.2c-53.3-48.8-124.1-78.9-201.9-78.9
				c-165.1,0-299.5,134.3-299.5,299.5s134.4,299.5,299.5,299.5c165.1,0,299.5-134.3,299.5-299.5c0-67.7-22.9-130.1-60.9-180.3
				l441.7-378.6c39,26.3,86,41.7,136.5,41.7c135.1,0,245-109.9,245-245S1306.4,1190.5,1171.3,1190.5z M245.7,1027.2
				c-15,0-27.2,12.2-27.2,27.2c0,15-12.2,27.2-27.2,27.2s-27.2-12.2-27.2-27.2c0-45,36.6-81.7,81.7-81.7c15.1,0,27.2,12.2,27.2,27.2
				C272.9,1015,260.8,1027.2,245.7,1027.2z M354.6,2061.7c-75.1,0-136.1,61.1-136.1,136.1c0,15-12.2,27.2-27.2,27.2
				s-27.2-12.2-27.2-27.2c0-105.1,85.5-190.6,190.6-190.6c15.1,0,27.2,12.2,27.2,27.2S369.7,2061.7,354.6,2061.7z M1171.3,1353.9
				c-45,0-81.7,36.6-81.7,81.7c0,15-12.2,27.2-27.2,27.2s-27.2-12.2-27.2-27.2c0-75.1,61.1-136.1,136.1-136.1
				c15.1,0,27.2,12.2,27.2,27.2C1198.5,1341.7,1186.4,1353.9,1171.3,1353.9z"/>
		</g>
	</g>
</g>
<g id="Шар_2">
	<g>
		<g>
			<path class="st6" d="M468.9,681.4L312.2,383.1h181.2L535,483.1c13.2,28.3,26.4,62.3,43.4,102h3.8c13.2-39.6,26.4-73.6,37.8-102
				l35.9-100.1h173.7L672.8,688.9L839,996.7H657.7l-49.1-109.5c-15.1-32.1-28.3-64.2-43.4-102h-3.8c-13.2,37.8-26.4,69.9-39.6,102
				l-45.3,109.5H302.8L468.9,681.4z"/>
			<path class="st6" d="M1025.9,383.1h196.4l186.9,613.6h-171.8l-69.9-298.3c-15.1-58.5-30.2-133.1-45.3-194.5h-3.8
				c-13.2,62.3-28.3,135.9-43.4,194.5l-69.9,298.3H839L1025.9,383.1z M973,740.8h300.2v125.6H973V740.8z"/>
			<path class="st6" d="M1467.7,383.1h396.5V519H1630v96.3h200.1v135.9H1630v109.5h243.6v135.9h-405.9V383.1z"/>
			<path class="st6" d="M1966.1,694.6c0-205.8,141.6-322.8,296.4-322.8c81.2,0,147.3,37.8,190.7,81.2l-85,103.8
				c-30.2-26.4-60.4-45.3-102-45.3c-71.7,0-134,66.1-134,177.5c0,115.2,52.9,179.4,132.2,179.4c47.2,0,85-24.5,111.4-52.9l85,102
				c-51.9,60.4-122.7,90.6-202,90.6C2102,1008,1966.1,904.1,1966.1,694.6z"/>
		</g>
	</g>
</g>
</svg>
